<svg id="Layer_1" data-name="Layer 1" xmlns="http://www.w3.org/2000/svg" viewBox="0 0 278.23 278.23"><title>Untitled-1</title><path d="M139.12,0C62.41,0,0,62.41,0,139.12S62.41,278.23,139.12,278.23s139.11-62.41,139.11-139.11S215.82,0,139.12,0Zm0,277C63.06,277,1.19,215.17,1.19,139.12S63.06,1.19,139.12,1.19,277,63.06,277,139.12,215.17,277,139.12,277Z"/><path d="M51.35,151.22a.64.64,0,0,1,.72.72l0,2.54a.44.44,0,0,0,.49.48h0a.52.52,0,0,0,.34-.16.49.49,0,0,0,.14-.34l-.18-8.84a.52.52,0,0,0-.16-.34.47.47,0,0,0-.33-.14h0a.49.49,0,0,0-.35.15.52.52,0,0,0-.14.35l.07,3.41a.64.64,0,0,1-.71.75l-27.7.56L52.55,128l0,0,0-1.39-32.5.66h0a.77.77,0,0,1-.53-.17.73.73,0,0,1-.19-.55L19.24,124a.5.5,0,0,0-.16-.34.43.43,0,0,0-.33-.14h0a.47.47,0,0,0-.35.15.52.52,0,0,0-.14.35l.18,8.83a.5.5,0,0,0,.16.34.45.45,0,0,0,.34.14h0a.44.44,0,0,0,.49-.5l-.07-3.41a.65.65,0,0,1,.72-.75l26.29-.53L18.78,148.9h0l.13,6.24a.45.45,0,0,0,.15.34.45.45,0,0,0,.34.14h0a.45.45,0,0,0,.36-.13.51.51,0,0,0,.12-.37l-.05-2.53a.64.64,0,0,1,.72-.75l30.78-.63Z"/><path d="M29.66,107.3a21.27,21.27,0,0,0,7.83,5.22,21.71,21.71,0,0,0,8.12,1.68q.57,0,1.14,0a15.35,15.35,0,0,0,7.86-2.62,14.36,14.36,0,0,0,5.8-14.42,15.3,15.3,0,0,0-3.88-7.31,21.35,21.35,0,0,0-7.83-5.2A21.33,21.33,0,0,0,39.44,83a15.26,15.26,0,0,0-7.85,2.59A14.36,14.36,0,0,0,25.79,100,15.48,15.48,0,0,0,29.66,107.3Zm-2.17-15a8.52,8.52,0,0,1,4.16-4.53,13.56,13.56,0,0,1,6.21-1.36l.79,0a25.87,25.87,0,0,1,8.54,2,25.94,25.94,0,0,1,7.54,4.49,13.93,13.93,0,0,1,4.12,5.81,8.73,8.73,0,0,1-4.31,10.71,14,14,0,0,1-7,1.34,25.38,25.38,0,0,1-8.56-2,25.64,25.64,0,0,1-7.52-4.51,14.11,14.11,0,0,1-4.12-5.81A8.51,8.51,0,0,1,27.49,92.27Z"/><path d="M43.5,63.63l1.79-1.79a.65.65,0,0,1,1,0L68.13,83.6a.65.65,0,0,1,0,1h0l-1.79,1.79a.5.5,0,0,0-.18.35.54.54,0,0,0,.18.35.48.48,0,0,0,.34.14.48.48,0,0,0,.35-.14l6.25-6.26a.47.47,0,0,0,.13-.34.48.48,0,0,0-.13-.35.5.5,0,0,0-.35-.14.48.48,0,0,0-.35.14l-2.41,2.41a.65.65,0,0,1-1,0L49.52,63l36.17,5.39h0l1-.94,0,0-23-23a.65.65,0,0,1,0-1l1.79-1.79a.48.48,0,0,0,.14-.35.5.5,0,0,0-.14-.35.48.48,0,0,0-.35-.14.5.5,0,0,0-.35.14l-6.24,6.26a.48.48,0,0,0-.14.35.48.48,0,0,0,.14.34.43.43,0,0,0,.69,0l2.42-2.41a.64.64,0,0,1,1,0L81.3,64,47.24,58.53h0L42.8,62.94a.48.48,0,0,0-.14.35.48.48,0,0,0,.14.34A.44.44,0,0,0,43.5,63.63Z"/><path d="M83.3,30.58a.51.51,0,0,0,.38,0L86,29.6a.75.75,0,0,1,.58,0A.71.71,0,0,1,87,30L98.6,58.53a.64.64,0,0,1-.4.95l-2.35,1a.44.44,0,0,0-.27.64.46.46,0,0,0,.27.26.43.43,0,0,0,.19,0l.18,0L106.84,57a.46.46,0,0,0,.26-.27.48.48,0,0,0,0-.37.51.51,0,0,0-.27-.27.47.47,0,0,0-.37,0l-3.57,1.45a.75.75,0,0,1-.58,0,.81.81,0,0,1-.38-.44L95.38,41.05l6.15-2.51A5.75,5.75,0,0,1,104,38a3.27,3.27,0,0,1,2,1.05,11.66,11.66,0,0,1,2,3.17,1,1,0,0,0,.27.24.37.37,0,0,0,.32,0,.36.36,0,0,0,.21-.24.59.59,0,0,0,0-.37L104.22,30.5a.53.53,0,0,0-.24-.27.37.37,0,0,0-.32,0,.41.41,0,0,0-.21.22.62.62,0,0,0,0,.36,11.68,11.68,0,0,1,.55,3.49,3.24,3.24,0,0,1-.72,2,5.58,5.58,0,0,1-2.08,1.34L95,40.14,90.06,28l9.39-3.82a9.09,9.09,0,0,1,3.37-.77h.07a5.73,5.73,0,0,1,3,.92,17.74,17.74,0,0,1,3.34,2.83.53.53,0,0,0,.64.15.4.4,0,0,0,.26-.26.72.72,0,0,0-.06-.44l-.06-.13-3.75-6.08,0,0-22.9,9.32a.46.46,0,0,0-.26.27.48.48,0,0,0,0,.37A.52.52,0,0,0,83.3,30.58Z"/><path d="M135.17,49.75l-2.53.26a.71.71,0,0,1-.56-.13.76.76,0,0,1-.24-.53l-3.13-30.63a.64.64,0,0,1,.65-.81l2.53-.26a.42.42,0,0,0,.32-.18.46.46,0,0,0-.06-.68.51.51,0,0,0-.36-.12l-10.1,1a.46.46,0,0,0-.33.18.53.53,0,0,0-.11.36.52.52,0,0,0,.16.35.57.57,0,0,0,.38.09l2.52-.26a.71.71,0,0,1,.57.12.8.8,0,0,1,.24.53l3.13,30.64a.76.76,0,0,1-.12.57.75.75,0,0,1-.53.23l-2.53.26a.44.44,0,0,0-.44.54.54.54,0,0,0,.18.33.47.47,0,0,0,.31.11h0l10.1-1a.54.54,0,0,0,.33-.18.53.53,0,0,0,.11-.36.54.54,0,0,0-.18-.33A.45.45,0,0,0,135.17,49.75Z"/><path d="M170.46,49.33a.6.6,0,0,0,0-.69.45.45,0,0,0-.4-.16.88.88,0,0,0-.45.23,12.17,12.17,0,0,1-5.35,3.53,11.81,11.81,0,0,1-5.88.37A9,9,0,0,1,153,49.35a14.3,14.3,0,0,1-2.86-6.68,24.56,24.56,0,0,1,.21-8.76,24.5,24.5,0,0,1,3.06-8.19,14.47,14.47,0,0,1,5-5.17,8.41,8.41,0,0,1,5.92-1.07,9.21,9.21,0,0,1,6.33,4,17,17,0,0,1,2.15,8.72.73.73,0,0,0,.13.43.55.55,0,0,0,.33.24.39.39,0,0,0,.35-.11.83.83,0,0,0,.21-.42l1.49-10.67a.36.36,0,0,0-.06-.27.28.28,0,0,0-.19-.14c-.14,0-.25,0-.35.19l-1.18,2.28a17.13,17.13,0,0,0-4.09-3.38,16.77,16.77,0,0,0-5.37-1.94,13.06,13.06,0,0,0-7.8.82A15.22,15.22,0,0,0,150,24.48a21.67,21.67,0,0,0-3.6,8.66,21.21,21.21,0,0,0,.15,9.41,15.39,15.39,0,0,0,4.05,7.22,13.73,13.73,0,0,0,7.2,3.72,15,15,0,0,0,2.95.29,13.3,13.3,0,0,0,4-.58A13.09,13.09,0,0,0,170.46,49.33Z"/><path d="M180.87,61.34l9.29,5.93a.46.46,0,0,0,.25.08h.12a.47.47,0,0,0,.31-.22.45.45,0,0,0,.06-.36.46.46,0,0,0-.21-.31l-2.51-1.61a.64.64,0,0,1-.22-1l17-26.57,4.86,3.11a7,7,0,0,1,2.3,2.08,3.7,3.7,0,0,1,.47,2.22,28,28,0,0,1-.8,4,.72.72,0,0,0,.3.75.35.35,0,0,0,.24.05.59.59,0,0,0,.35-.31,1.18,1.18,0,0,0,.18-.36l2.48-6,0,0L192.55,28.19,188.12,33a1.18,1.18,0,0,0-.25.32.61.61,0,0,0-.14.44.33.33,0,0,0,.15.2.75.75,0,0,0,.82,0,27.27,27.27,0,0,1,3.26-2.4,3.77,3.77,0,0,1,2.21-.5A6.93,6.93,0,0,1,197,32.22l4.86,3.1-17,26.57a.65.65,0,0,1-1,.22l-2.5-1.6a.51.51,0,0,0-.38-.09.52.52,0,0,0-.3.24.48.48,0,0,0-.06.37A.46.46,0,0,0,180.87,61.34Z"/><path d="M227.44,56.47a.75.75,0,0,1,.23.54.78.78,0,0,1-.29.5L204.21,77.8a.65.65,0,0,1-1-.07l-1.67-1.91a.46.46,0,0,0-.33-.19h0a.51.51,0,0,0-.49.48.5.5,0,0,0,.11.36l6.69,7.63a.48.48,0,0,0,.34.16h0a.44.44,0,0,0,.31-.11.49.49,0,0,0,.17-.34.56.56,0,0,0-.12-.36l-1.67-1.91a.71.71,0,0,1-.23-.53.73.73,0,0,1,.3-.5l23.16-20.29a.65.65,0,0,1,1,.07l1.67,1.91a.48.48,0,0,0,.34.16.44.44,0,0,0,.35-.12.47.47,0,0,0,.17-.33.51.51,0,0,0-.12-.36l-6.69-7.64a.5.5,0,0,0-.69,0,.46.46,0,0,0-.19.33.5.5,0,0,0,.14.36Z"/><path d="M220.86,88.4a15.43,15.43,0,0,0-3.73,7.4,14.36,14.36,0,0,0,6.05,14.31,15.23,15.23,0,0,0,7.89,2.46h.75a21.9,21.9,0,0,0,8.48-1.84A21.49,21.49,0,0,0,248,105.4,15.31,15.31,0,0,0,251.78,98a14.36,14.36,0,0,0-6.05-14.32,15.3,15.3,0,0,0-7.9-2.47,22.94,22.94,0,0,0-17,7.16Zm17.83-3.74,1,0a13.6,13.6,0,0,1,6,1.25,8.74,8.74,0,0,1,4.5,10.63,14,14,0,0,1-4,5.89,26.12,26.12,0,0,1-7.46,4.61,25.76,25.76,0,0,1-8.5,2.13,14,14,0,0,1-7-1.22,8.75,8.75,0,0,1-4.5-10.63,14.34,14.34,0,0,1,4-5.88,28,28,0,0,1,16-6.75Z"/><path d="M259.84,123.81a.46.46,0,0,0-.34-.16h0a.44.44,0,0,0-.48.48l-.05,2.54a.77.77,0,0,1-.2.55.72.72,0,0,1-.52.17h0l-30.79-.65a.75.75,0,0,1-.55-.2.76.76,0,0,1-.17-.55l.06-2.54a.45.45,0,0,0-.49-.5h0a.48.48,0,0,0-.34.14.5.5,0,0,0-.16.34l-.18,8.83a.43.43,0,0,0,.14.35.5.5,0,0,0,.34.16h0a.49.49,0,0,0,.34-.14.51.51,0,0,0,.15-.35l.07-3.41a.64.64,0,0,1,.75-.71l27.69.58-29.84,21.11h0l0,1.34v.06l32.5.68a.65.65,0,0,1,.72.75l0,2.54a.44.44,0,0,0,.13.34.5.5,0,0,0,.35.16h0a.47.47,0,0,0,.33-.14.52.52,0,0,0,.16-.34l.18-8.84a.44.44,0,0,0-.14-.35.49.49,0,0,0-.34-.15h0a.44.44,0,0,0-.48.48l-.07,3.41a.79.79,0,0,1-.19.55.74.74,0,0,1-.56.17L231.42,150l28.41-19.56,0,0,.13-6.24A.41.41,0,0,0,259.84,123.81Z"/><path d="M248.58,170.93a21.27,21.27,0,0,0-7.83-5.22,21.71,21.71,0,0,0-8.12-1.68c-.38,0-.77,0-1.14,0a15.5,15.5,0,0,0-7.87,2.61,14.38,14.38,0,0,0-5.79,14.42,15.37,15.37,0,0,0,3.87,7.31,23.26,23.26,0,0,0,17.09,6.87,15.3,15.3,0,0,0,7.86-2.6,14.38,14.38,0,0,0,5.79-14.42A15.46,15.46,0,0,0,248.58,170.93Zm2.17,15a8.57,8.57,0,0,1-4.16,4.53,13.43,13.43,0,0,1-6.21,1.36c-.26,0-.52,0-.79,0a28.29,28.29,0,0,1-16.08-6.46,13.93,13.93,0,0,1-4.12-5.81,8.74,8.74,0,0,1,4.3-10.71,14.21,14.21,0,0,1,7-1.34A27.93,27.93,0,0,1,246.77,174a14.21,14.21,0,0,1,4.12,5.81A8.51,8.51,0,0,1,250.75,186Z"/><path d="M234.74,214.6,233,216.39a.65.65,0,0,1-1,0l-21.8-21.77a.65.65,0,0,1,0-1h0l1.79-1.79a.47.47,0,0,0,.17-.35.52.52,0,0,0-.17-.35.48.48,0,0,0-.35-.14.48.48,0,0,0-.34.14L205,197.36a.48.48,0,0,0-.14.35.48.48,0,0,0,.14.34.51.51,0,0,0,.7,0l2.41-2.41a.65.65,0,0,1,1,0l19.6,19.57-36.16-5.39h0l-.94,1,0,0,23,23a.65.65,0,0,1,0,1l-1.79,1.79a.5.5,0,0,0-.14.35.48.48,0,0,0,.49.49.48.48,0,0,0,.34-.14l6.25-6.26a.48.48,0,0,0,.14-.34.48.48,0,0,0-.14-.35.44.44,0,0,0-.7,0l-2.41,2.41a.65.65,0,0,1-1,0l-18.61-18.59L231,219.71h0l4.41-4.42a.44.44,0,0,0,.14-.34.45.45,0,0,0-.14-.35A.43.43,0,0,0,234.74,214.6Z"/><path d="M194.94,247.66a.49.49,0,0,0-.39,0l-2.35.95a.71.71,0,0,1-.58,0,.73.73,0,0,1-.37-.44l-11.62-28.52a.65.65,0,0,1,.41-1l2.35-1a.44.44,0,0,0,.27-.64.46.46,0,0,0-.27-.26.48.48,0,0,0-.2,0,.47.47,0,0,0-.17,0L171.4,221.2a.46.46,0,0,0-.26.27.44.44,0,0,0,0,.37.48.48,0,0,0,.27.27.44.44,0,0,0,.37,0l3.57-1.45a.8.8,0,0,1,.58,0,.78.78,0,0,1,.37.45l6.56,16.11-6.15,2.51a5.71,5.71,0,0,1-2.5.5,3.29,3.29,0,0,1-2-1.05,11.43,11.43,0,0,1-2-3.16.83.83,0,0,0-.28-.25.37.37,0,0,0-.32,0,.37.37,0,0,0-.2.25.5.5,0,0,0,0,.36L174,247.73a.46.46,0,0,0,.24.27.34.34,0,0,0,.32,0,.45.45,0,0,0,.21-.22.72.72,0,0,0,0-.36,12,12,0,0,1-.55-3.49,3.27,3.27,0,0,1,.73-2,5.49,5.49,0,0,1,2.08-1.33l6.14-2.51,5,12.18-9.39,3.82a9.14,9.14,0,0,1-3.37.77h-.07a5.73,5.73,0,0,1-3-.92,18.08,18.08,0,0,1-3.35-2.83.51.51,0,0,0-.63-.15.37.37,0,0,0-.26.27.7.7,0,0,0,.06.43l.05.13,3.75,6.08,0,0,22.89-9.32a.51.51,0,0,0,.27-.27.48.48,0,0,0,0-.37A.46.46,0,0,0,194.94,247.66Z"/><path d="M156.45,259.55l-2.53.25a.73.73,0,0,1-.57-.12.75.75,0,0,1-.23-.53L150,228.51a.73.73,0,0,1,.12-.57.75.75,0,0,1,.53-.23l2.52-.26a.44.44,0,0,0,.44-.54.46.46,0,0,0-.18-.33.48.48,0,0,0-.3-.11h-.05l-10.1,1a.51.51,0,0,0-.33.19.45.45,0,0,0-.11.35.46.46,0,0,0,.18.33.45.45,0,0,0,.36.11l2.52-.26a.73.73,0,0,1,.57.13.76.76,0,0,1,.24.53l3.13,30.64a.65.65,0,0,1-.66.8l-2.52.26a.46.46,0,0,0-.33.18.48.48,0,0,0-.11.36.46.46,0,0,0,.18.33.53.53,0,0,0,.36.11l10.1-1a.42.42,0,0,0,.32-.18A.42.42,0,0,0,157,260a.51.51,0,0,0-.16-.36A.49.49,0,0,0,156.45,259.55Z"/><path d="M127.69,228.46a13.81,13.81,0,0,0-7.2-3.72,15,15,0,0,0-2.95-.29,12.61,12.61,0,0,0-9.76,4.46.59.59,0,0,0,0,.69.47.47,0,0,0,.4.15.88.88,0,0,0,.45-.23A12.2,12.2,0,0,1,114,226a11.92,11.92,0,0,1,5.88-.37,9.08,9.08,0,0,1,5.4,3.26,14.19,14.19,0,0,1,2.85,6.68,24.1,24.1,0,0,1-.21,8.76,24.49,24.49,0,0,1-3,8.19,14.47,14.47,0,0,1-5,5.17,8.41,8.41,0,0,1-5.92,1.07,9.18,9.18,0,0,1-6.33-4,17,17,0,0,1-2.15-8.72.8.8,0,0,0-.13-.43.55.55,0,0,0-.33-.24.45.45,0,0,0-.36.11.83.83,0,0,0-.2.42l-1.49,10.67a.36.36,0,0,0,0,.27.33.33,0,0,0,.19.15c.14,0,.26,0,.36-.2l1.18-2.28a17.28,17.28,0,0,0,4.08,3.38,17,17,0,0,0,5.37,1.94A13,13,0,0,0,122,259a15.35,15.35,0,0,0,6.34-5.23,21.52,21.52,0,0,0,3.59-8.66,21.07,21.07,0,0,0-.14-9.41A15.48,15.48,0,0,0,127.69,228.46Z"/><path d="M97.37,216.89,88.08,211a.46.46,0,0,0-.25-.08l-.12,0a.49.49,0,0,0-.31.21.47.47,0,0,0-.06.37.51.51,0,0,0,.21.31l2.51,1.6a.64.64,0,0,1,.22,1L73.31,241l-4.86-3.1a7.05,7.05,0,0,1-2.3-2.09,3.7,3.7,0,0,1-.47-2.22,28,28,0,0,1,.8-4,.73.73,0,0,0-.31-.75.34.34,0,0,0-.24-.05.65.65,0,0,0-.35.31,2,2,0,0,0-.18.37l-2.48,6v0L85.69,250l4.42-4.8a1.26,1.26,0,0,0,.26-.31.58.58,0,0,0,.13-.45.28.28,0,0,0-.14-.2.75.75,0,0,0-.82,0,27.27,27.27,0,0,1-3.26,2.4,3.72,3.72,0,0,1-2.22.5A7,7,0,0,1,81.21,246l-4.86-3.1,17-26.57a.64.64,0,0,1,1-.22l2.51,1.6a.5.5,0,0,0,.38.09.51.51,0,0,0,.3-.24.47.47,0,0,0,.06-.37A.49.49,0,0,0,97.37,216.89Z"/><path d="M50.79,221.76a.77.77,0,0,1-.23-.53.82.82,0,0,1,.3-.5L74,200.44a.64.64,0,0,1,1,.06l1.67,1.91a.53.53,0,0,0,.34.2h0a.52.52,0,0,0,.34-.15.48.48,0,0,0,.16-.34.43.43,0,0,0-.12-.35l-6.68-7.64a.48.48,0,0,0-.34-.16h0a.48.48,0,0,0-.48.45.47.47,0,0,0,.12.36l1.67,1.91a.75.75,0,0,1,.23.53.73.73,0,0,1-.3.5L48.48,218a.64.64,0,0,1-1-.07L45.78,216a.48.48,0,0,0-.34-.16.47.47,0,0,0-.36.12.5.5,0,0,0-.16.34.46.46,0,0,0,.12.35l6.68,7.64a.48.48,0,0,0,.34.16.47.47,0,0,0,.36-.12.5.5,0,0,0,.19-.33.48.48,0,0,0-.15-.36Z"/><path d="M57.37,189.83a15.42,15.42,0,0,0,3.74-7.39,14.36,14.36,0,0,0-6-14.32,15.17,15.17,0,0,0-7.9-2.45c-.24,0-.49,0-.75,0a21.85,21.85,0,0,0-8.47,1.84,21.41,21.41,0,0,0-7.74,5.34,15.33,15.33,0,0,0-3.75,7.37,14.41,14.41,0,0,0,6.05,14.32A15.41,15.41,0,0,0,40.41,197a21.24,21.24,0,0,0,9.23-1.81A21.2,21.2,0,0,0,57.37,189.83Zm-17.82,3.74-1,0a13.63,13.63,0,0,1-6-1.25A8.75,8.75,0,0,1,28,181.72a14,14,0,0,1,4-5.88,25.73,25.73,0,0,1,7.45-4.62A26.06,26.06,0,0,1,48,169.09a14,14,0,0,1,7,1.22,8.58,8.58,0,0,1,4.24,4.46,8.49,8.49,0,0,1,.25,6.17,14.24,14.24,0,0,1-4,5.89,25.69,25.69,0,0,1-7.44,4.63A25.5,25.5,0,0,1,39.55,193.57Z"/></svg>